<?xml version="1.0" encoding="UTF-8"?>
<svg xmlns="http://www.w3.org/2000/svg" height="596.70796460177" width="447.6106194690265" viewBox="-223.64601769911505 0 447.6106194690265 596.70796460177">
	<g id="p1" style="display:inline">
		<g id="CrdtId(0, 1)" transform="translate(0, 0)">
		<g id="CrdtId(1, 1)" transform="translate(0, 0)">
			<polyline style="fill:none; stroke:rgb(0, 0, 0); stroke-width:0.573; opacity:1" stroke-linecap="round" points="
195.523,63.692 
195.523,63.692 
195.306,63.679 
195.108,63.640 
194.929,63.575 
194.769,63.484 
194.628,63.367 
194.511,63.230 
194.423,63.078 
194.363,62.912 
194.332,62.732 
194.330,62.538 
194.330,62.538 
194.347,62.372 
194.378,62.207 
194.425,62.041 
194.487,61.874 
194.563,61.708 
194.652,61.544 
194.752,61.386 
194.861,61.234 
194.980,61.088 
195.110,60.947 
195.248,60.815 
195.393,60.694 
195.544,60.584 
195.702,60.485 
195.867,60.397 
196.036,60.322 
196.208,60.265 
196.383,60.223 
196.559,60.198 
196.739,60.190 
196.739,60.190 
196.907,60.205 
197.046,60.248 
197.154,60.320 
197.233,60.420 
197.281,60.550 
197.281,60.550 
197.303,60.544 
197.324,60.540 
197.346,60.537 
197.367,60.535 
197.389,60.534 
197.389,60.534 
197.489,60.541 
197.584,60.559 
197.672,60.591 
197.753,60.635 
197.828,60.691 
197.895,60.757 
197.952,60.829 
197.998,60.908 
198.035,60.993 
198.061,61.085 
198.061,61.085 
198.098,61.253 
198.134,61.415 
198.170,61.571 
198.206,61.721 
198.241,61.865 
198.278,62.004 
198.320,62.142 
198.366,62.277 
198.416,62.410 
198.470,62.541 
198.532,62.672 
198.604,62.806 
198.686,62.941 
198.778,63.078 
198.879,63.218 
198.879,63.218 
198.920,63.282 
198.948,63.350 
198.965,63.424 
198.970,63.502 
198.964,63.585 
198.947,63.669 
198.921,63.748 
198.887,63.824 
198.844,63.896 
198.792,63.963 
198.731,64.023 
198.664,64.069 
198.590,64.102 
198.509,64.121 
198.421,64.128 
198.421,64.128 
198.368,64.126 
198.319,64.119 
198.275,64.109 
198.235,64.094 
198.199,64.074 
198.167,64.052 
198.137,64.028 
198.109,64.002 
198.084,63.974 
198.061,63.944 
198.061,63.944 
197.966,63.810 
197.877,63.675 
197.794,63.539 
197.716,63.404 
197.645,63.268 
197.578,63.124 
197.517,62.963 
197.462,62.786 
197.411,62.594 
197.366,62.385 
197.366,62.385 
197.268,62.572 
197.165,62.744 
197.056,62.899 
196.942,63.038 
196.823,63.161 
196.699,63.269 
196.574,63.364 
196.446,63.446 
196.316,63.514 
196.184,63.570 
196.051,63.614 
195.919,63.648 
195.787,63.672 
195.655,63.687 
195.523,63.692 
195.523,63.692 
" />
			<polyline style="fill:none; stroke:rgb(0, 0, 0); stroke-width:0.573; opacity:1" stroke-linecap="round" points="
195.316,62.652 
195.316,62.652 
195.316,62.656 
195.316,62.660 
195.316,62.664 
195.316,62.669 
195.316,62.675 
195.316,62.675 
195.362,62.689 
195.413,62.700 
195.470,62.707 
195.532,62.712 
195.599,62.713 
195.599,62.713 
195.754,62.697 
195.906,62.647 
196.055,62.565 
196.201,62.449 
196.345,62.300 
196.481,62.120 
196.604,61.908 
196.715,61.665 
196.813,61.390 
196.899,61.085 
196.899,61.085 
196.717,61.130 
196.545,61.186 
196.382,61.254 
196.229,61.332 
196.085,61.421 
195.952,61.519 
195.830,61.624 
195.720,61.736 
195.621,61.854 
195.534,61.979 
195.461,62.109 
195.402,62.241 
195.359,62.376 
195.330,62.513 
195.316,62.652 
195.316,62.652 
" />
			<polyline style="fill:none; stroke:rgb(0, 0, 0); stroke-width:0.573; opacity:1" stroke-linecap="round" points="
200.768,63.692 
200.768,63.692 
200.652,63.689 
200.536,63.681 
200.421,63.667 
200.306,63.648 
200.191,63.623 
200.080,63.593 
199.977,63.555 
199.882,63.512 
199.796,63.462 
199.717,63.405 
199.650,63.341 
199.599,63.268 
199.565,63.187 
199.547,63.096 
199.545,62.996 
199.545,62.996 
199.551,62.935 
199.564,62.879 
199.584,62.828 
199.611,62.783 
199.644,62.744 
199.683,62.710 
199.726,62.680 
199.773,62.656 
199.825,62.636 
199.881,62.622 
199.881,62.622 
199.867,62.581 
199.854,62.537 
199.844,62.491 
199.835,62.443 
199.828,62.392 
199.828,62.392 
199.810,62.239 
199.793,62.086 
199.778,61.932 
199.764,61.778 
199.751,61.624 
199.740,61.472 
199.730,61.323 
199.723,61.180 
199.717,61.040 
199.713,60.905 
199.710,60.776 
199.709,60.656 
199.709,60.543 
199.710,60.439 
199.713,60.343 
199.713,60.343 
199.726,60.160 
199.739,59.991 
199.754,59.835 
199.769,59.692 
199.786,59.563 
199.802,59.444 
199.818,59.330 
199.833,59.222 
199.848,59.120 
199.862,59.024 
199.874,58.930 
199.884,58.836 
199.891,58.740 
199.895,58.644 
199.896,58.546 
199.896,58.546 
199.900,58.481 
199.910,58.418 
199.927,58.360 
199.950,58.304 
199.981,58.252 
200.018,58.207 
200.064,58.171 
200.117,58.146 
200.179,58.131 
200.248,58.126 
200.248,58.126 
200.350,58.134 
200.446,58.157 
200.537,58.196 
200.622,58.251 
200.703,58.321 
200.772,58.406 
200.824,58.504 
200.859,58.617 
200.876,58.743 
200.875,58.883 
200.875,58.883 
200.867,59.010 
200.855,59.141 
200.839,59.275 
200.819,59.414 
200.795,59.556 
200.770,59.708 
200.748,59.877 
200.729,60.064 
200.713,60.268 
200.699,60.488 
200.699,60.488 
200.694,60.592 
200.689,60.695 
200.686,60.798 
200.685,60.899 
200.684,61.001 
200.684,61.001 
200.793,60.854 
200.911,60.721 
201.040,60.601 
201.178,60.494 
201.326,60.400 
201.480,60.322 
201.635,60.261 
201.790,60.217 
201.948,60.191 
202.106,60.183 
202.106,60.183 
202.250,60.189 
202.387,60.208 
202.518,60.239 
202.642,60.283 
202.760,60.339 
202.869,60.409 
202.969,60.492 
203.058,60.588 
203.138,60.698 
203.207,60.821 
203.264,60.958 
203.305,61.107 
203.331,61.270 
203.342,61.446 
203.337,61.635 
203.337,61.635 
203.312,61.888 
203.260,62.125 
203.182,62.346 
203.078,62.553 
202.947,62.744 
202.795,62.919 
202.625,63.077 
202.439,63.217 
202.235,63.341 
202.014,63.447 
201.781,63.535 
201.540,63.604 
201.290,63.653 
201.033,63.682 
200.768,63.692 
200.768,63.692 
" />
			<polyline style="fill:none; stroke:rgb(0, 0, 0); stroke-width:0.573; opacity:1" stroke-linecap="round" points="
200.653,62.637 
200.653,62.637 
200.648,62.646 
200.642,62.655 
200.638,62.664 
200.634,62.674 
200.630,62.683 
200.630,62.683 
200.654,62.686 
200.677,62.688 
200.698,62.689 
200.719,62.690 
200.737,62.690 
200.737,62.690 
200.895,62.686 
201.048,62.672 
201.198,62.649 
201.344,62.617 
201.487,62.576 
201.622,62.525 
201.748,62.465 
201.863,62.395 
201.969,62.316 
202.064,62.228 
202.146,62.130 
202.211,62.024 
202.259,61.908 
202.290,61.784 
202.305,61.651 
202.305,61.651 
202.308,61.576 
202.303,61.506 
202.292,61.440 
202.273,61.379 
202.248,61.322 
202.212,61.272 
202.164,61.234 
202.104,61.206 
202.031,61.190 
201.946,61.184 
201.946,61.184 
201.778,61.200 
201.619,61.248 
201.468,61.329 
201.324,61.441 
201.189,61.586 
201.062,61.756 
200.945,61.946 
200.838,62.157 
200.741,62.387 
200.653,62.637 
200.653,62.637 
" />
			<polyline style="fill:none; stroke:rgb(0, 0, 0); stroke-width:0.573; opacity:1" stroke-linecap="round" points="
205.646,63.799 
205.646,63.799 
205.433,63.791 
205.234,63.765 
205.049,63.722 
204.878,63.662 
204.721,63.585 
204.579,63.493 
204.453,63.388 
204.342,63.270 
204.246,63.140 
204.167,62.996 
204.103,62.842 
204.055,62.679 
204.024,62.508 
204.009,62.328 
204.010,62.140 
204.010,62.140 
204.025,61.974 
204.053,61.814 
204.093,61.659 
204.145,61.509 
204.209,61.364 
204.284,61.225 
204.368,61.093 
204.461,60.967 
204.564,60.849 
204.675,60.737 
204.795,60.633 
204.920,60.539 
205.053,60.455 
205.191,60.381 
205.337,60.316 
205.486,60.263 
205.639,60.221 
205.794,60.191 
205.952,60.173 
206.113,60.167 
206.113,60.167 
206.223,60.173 
206.329,60.190 
206.430,60.218 
206.526,60.258 
206.617,60.309 
206.696,60.374 
206.756,60.458 
206.795,60.560 
206.815,60.679 
206.816,60.817 
206.816,60.817 
206.806,60.909 
206.789,60.993 
206.765,61.071 
206.733,61.143 
206.694,61.207 
206.648,61.262 
206.595,61.305 
206.535,61.336 
206.469,61.354 
206.396,61.360 
206.396,61.360 
206.355,61.358 
206.320,61.353 
206.290,61.344 
206.266,61.331 
206.246,61.314 
206.229,61.296 
206.212,61.278 
206.193,61.260 
206.174,61.243 
206.155,61.226 
206.132,61.211 
206.105,61.199 
206.072,61.191 
206.034,61.186 
205.990,61.184 
205.990,61.184 
205.885,61.190 
205.785,61.207 
205.688,61.235 
205.596,61.275 
205.509,61.326 
205.426,61.386 
205.350,61.452 
205.281,61.526 
205.217,61.606 
205.161,61.693 
205.112,61.784 
205.074,61.877 
205.046,61.973 
205.027,62.071 
205.019,62.171 
205.019,62.171 
205.018,62.285 
205.031,62.389 
205.059,62.484 
205.102,62.569 
205.161,62.645 
205.234,62.708 
205.322,62.757 
205.425,62.792 
205.544,62.813 
205.677,62.820 
205.677,62.820 
205.791,62.818 
205.895,62.809 
205.989,62.796 
206.073,62.776 
206.147,62.752 
206.213,62.723 
206.274,62.694 
206.329,62.664 
206.378,62.632 
206.422,62.599 
206.463,62.566 
206.502,62.534 
206.541,62.505 
206.578,62.476 
206.613,62.450 
206.650,62.426 
206.691,62.408 
206.734,62.395 
206.781,62.387 
206.831,62.385 
206.831,62.385 
206.943,62.401 
207.028,62.449 
207.086,62.530 
207.118,62.644 
207.122,62.790 
207.122,62.790 
207.108,62.909 
207.080,63.022 
207.037,63.128 
206.980,63.228 
206.908,63.321 
206.823,63.407 
206.728,63.486 
206.622,63.556 
206.507,63.619 
206.380,63.673 
206.246,63.718 
206.105,63.754 
205.958,63.779 
205.805,63.794 
205.646,63.799 
205.646,63.799 
" />
		</g>
		</g>
	</g>
</svg>