<?xml version="1.0" encoding="UTF-8"?>
<svg xmlns="http://www.w3.org/2000/svg" height="596.70796460177" width="447.6106194690265" viewBox="-223.64601769911505 0.0 447.6106194690265 596.70796460177">
	<g id="p1" style="display:inline">
		<g id="CrdtId(0, 1)" transform="translate(0.0, 0.0)">
		<g id="CrdtId(0, 11)" transform="translate(0.0, 0.0)">
			<polyline style="fill:none; stroke:rgb(0, 0, 0); stroke-width:1.274; opacity:0.7" stroke-linecap="round" points="-139.357,77.937 -138.530,76.401 -138.564,75.389 -138.770,74.620 -139.639,73.899 -140.712,73.520 -141.927,73.295 -144.174,73.468 -145.736,74.035 -147.225,75.221 -149.100,77.064 -150.169,78.646 -150.977,80.164 -151.974,82.883 -152.210,84.110 -152.370,86.363 -152.173,87.706 -151.752,88.722 -150.804,89.967 -149.812,90.682 -148.585,91.013 -147.279,91.088 -146.075,90.848 -144.306,89.943 -142.578,88.298 -141.151,86.630 -139.868,84.915 -138.460,82.522 -137.614,80.518 -137.339,79.438 -137.014,77.877 -136.881,75.979 -137.174,73.468 -137.621,72.669 -137.780,73.982 -137.675,74.749 -137.870,80.878 -137.765,83.166 -137.482,85.683 -136.968,87.628 -136.390,88.944 -134.311,91.480 -133.790,91.948 -132.800,92.731 -131.603,93.119 -130.698,92.916 -129.533,92.128 -128.856,91.287 -128.347,90.306 -128.087,89.736 -127.942,89.439 -127.942,89.439 " />
			<polyline style="fill:none; stroke:rgb(0, 0, 0); stroke-width:1.274; opacity:0.7" stroke-linecap="round" points="-112.579,49.834 -113.004,49.357 -112.822,49.589 -113.764,52.964 -113.969,54.055 -115.376,67.564 -115.553,71.995 -115.659,72.758 -115.711,78.143 -115.061,85.532 -114.753,86.689 -114.030,88.390 -112.772,89.985 -112.287,90.257 -112.096,90.579 -111.770,90.606 -111.326,90.816 -110.391,90.829 -109.750,90.762 -109.453,90.558 -109.198,90.569 -107.883,89.935 -107.079,89.363 -105.489,87.742 -104.942,86.749 -104.219,84.868 -103.894,83.661 -103.713,82.466 -103.732,80.848 -104.375,78.168 -105.457,76.315 -106.679,75.351 -107.262,75.153 -108.521,75.017 -109.943,75.215 -110.631,75.346 -111.093,75.620 -111.796,75.740 -112.471,76.034 -113.813,76.945 -114.181,77.448 -114.450,78.130 -114.439,78.510 -114.322,78.877 -114.276,79.171 -114.276,79.171 " />
			<polyline style="fill:none; stroke:rgb(0, 0, 0); stroke-width:1.274; opacity:0.7" stroke-linecap="round" points="-87.336,77.034 -87.573,76.822 -87.614,76.622 -87.807,76.306 -87.886,76.286 -87.921,76.181 -87.965,76.187 -87.988,76.102 -88.509,75.907 -89.572,75.706 -90.816,75.787 -91.290,75.878 -92.583,76.490 -92.972,76.875 -93.567,77.210 -94.324,77.982 -94.963,79.179 -95.563,81.015 -96.156,83.809 -96.253,85.605 -96.179,86.880 -95.679,89.406 -94.624,91.665 -93.970,92.437 -93.114,93.153 -91.201,93.698 -89.596,93.521 -88.356,93.096 -87.852,93.064 -87.128,92.809 -85.355,92.441 -84.306,92.479 -84.018,92.315 -83.333,92.345 -81.969,92.114 -81.842,92.073 -82.036,92.052 -82.074,91.967 -82.078,91.818 -82.059,91.708 " />
			<polyline style="fill:none; stroke:rgb(0, 0, 0); stroke-width:1.274; opacity:0.7" stroke-linecap="round" points="-60.753,77.490 -61.117,76.664 -61.277,76.497 -61.404,76.553 -62.030,76.362 -62.884,76.446 -65.098,77.033 -66.401,77.596 -68.623,78.971 -70.430,80.352 -71.427,81.416 -71.927,82.152 -73.601,83.860 -74.476,85.371 -74.604,86.012 -74.966,86.738 -75.107,87.483 -74.877,88.404 -74.613,88.598 -73.613,89.895 -72.833,90.417 -72.321,90.506 -71.814,90.756 -70.920,90.923 -70.311,91.205 -69.081,90.886 -68.396,90.543 -66.051,89.711 -63.132,86.861 -62.606,85.710 -61.601,82.391 -61.368,81.032 -61.072,78.351 -60.761,72.722 -60.624,71.620 -60.931,64.889 -61.336,60.692 -61.406,58.315 -61.332,56.200 -61.353,56.516 -61.555,56.933 -61.610,58.492 -61.961,61.396 -62.041,67.876 -61.858,70.392 -61.292,75.060 -60.762,78.457 -60.518,79.318 -59.098,87.152 -58.546,88.666 -57.630,90.217 -56.863,91.160 -56.165,91.755 -55.090,92.361 -54.365,92.252 -52.433,91.527 -52.081,91.553 -51.785,91.420 -49.748,89.716 -47.452,88.518 -46.331,87.778 -45.530,87.525 -45.379,87.582 -45.175,87.333 -45.144,87.237 -45.146,87.129 -45.140,87.047 " />
		</g>
		</g>
	</g>
</svg>
