<?xml version="1.0" encoding="UTF-8"?>
<svg xmlns="http://www.w3.org/2000/svg" height="596.70796460177" width="447.6106194690265" viewBox="-223.64601769911505 0.0 447.6106194690265 596.70796460177">
	<g id="p1" style="display:inline">
		<g id="CrdtId(0, 1)" transform="translate(0.0, 0.0)">
		<g id="CrdtId(0, 11)" transform="translate(0.0, 0.0)">
			<polyline style="fill:none; stroke:rgb(60, 60, 60); stroke-width:0.794; opacity:1" stroke-linecap="round" points="-168.690,29.127 -168.756,29.124 " />
			<polyline style="fill:none; stroke:rgb(60, 60, 60); stroke-width:0.796; opacity:1" stroke-linecap="round" points="-168.864,28.955 -168.804,29.029 -168.814,28.924 -168.741,28.969 -168.784,28.989 "/>
			<polyline style="fill:none; stroke:rgb(60, 60, 60); stroke-width:0.839; opacity:1" stroke-linecap="round" points="-168.784,28.989 -168.781,29.024 -168.815,28.991 -168.907,29.013 -168.643,28.933 -168.487,28.965 "/>
			<polyline style="fill:none; stroke:rgb(0, 0, 0); stroke-width:0.933; opacity:1" stroke-linecap="round" points="-168.487,28.965 -168.322,28.969 -167.607,28.827 -166.276,29.073 -165.637,28.970 -164.949,29.068 "/>
			<polyline style="fill:none; stroke:rgb(0, 0, 0); stroke-width:0.946; opacity:1" stroke-linecap="round" points="-164.949,29.068 -164.429,28.989 -164.005,29.103 -161.625,29.015 -161.449,29.105 -160.477,28.906 "/>
			<polyline style="fill:none; stroke:rgb(0, 0, 0); stroke-width:0.938; opacity:1" stroke-linecap="round" points="-160.477,28.906 -159.716,29.024 -158.602,28.836 -157.949,29.024 -156.081,29.041 -155.198,28.853 "/>
			<polyline style="fill:none; stroke:rgb(0, 0, 0); stroke-width:0.929; opacity:1" stroke-linecap="round" points="-155.198,28.853 -154.095,29.071 -153.565,29.036 -152.667,28.788 -150.956,28.852 -149.938,28.671 "/>
			<polyline style="fill:none; stroke:rgb(0, 0, 0); stroke-width:0.954; opacity:1" stroke-linecap="round" points="-149.938,28.671 -148.756,28.739 -147.574,28.577 -146.721,28.645 -146.113,28.470 -145.949,28.573 "/>
			<polyline style="fill:none; stroke:rgb(0, 0, 0); stroke-width:0.982; opacity:1" stroke-linecap="round" points="-145.949,28.573 -145.539,28.399 -144.531,28.316 -144.710,28.418 -144.780,28.366 -144.687,28.353 "/>
			<polyline style="fill:none; stroke:rgb(60, 60, 60); stroke-width:0.840; opacity:1" stroke-linecap="round" points="-144.687,28.353 -144.664,28.377 -144.677,28.388 -144.677,28.388 " />
			<polyline style="fill:none; stroke:rgb(60, 60, 60); stroke-width:0.788; opacity:1" stroke-linecap="round" points="-128.763,27.591 -128.782,27.591 -128.842,27.591 -129.240,27.549 -129.284,27.576 "/>
			<polyline style="fill:none; stroke:rgb(60, 60, 60); stroke-width:0.849; opacity:1" stroke-linecap="round" points="-129.284,27.576 -129.242,27.560 -129.231,27.588 -129.210,27.590 -129.195,27.593 -129.218,27.595 "/>
			<polyline style="fill:none; stroke:rgb(0, 0, 0); stroke-width:0.969; opacity:1" stroke-linecap="round" points="-129.218,27.595 -129.184,27.595 -129.156,27.611 -129.149,27.635 -129.121,27.629 -129.200,27.665 "/>
			<polyline style="fill:none; stroke:rgb(0, 0, 0); stroke-width:1.229; opacity:1" stroke-linecap="round" points="-129.200,27.665 -129.152,27.696 -129.024,27.683 -129.151,27.785 -129.096,27.842 -129.012,27.783 "/>
			<polyline style="fill:none; stroke:rgb(0, 0, 0); stroke-width:1.428; opacity:1" stroke-linecap="round" points="-129.012,27.783 -128.606,27.897 -127.192,27.993 -125.948,27.976 -125.409,27.748 -125.166,27.821 "/>
			<polyline style="fill:none; stroke:rgb(0, 0, 0); stroke-width:1.432; opacity:1" stroke-linecap="round" points="-125.166,27.821 -123.474,27.725 -120.086,27.819 -119.410,27.703 -117.321,27.737 -116.321,27.649 "/>
			<polyline style="fill:none; stroke:rgb(0, 0, 0); stroke-width:1.431; opacity:1" stroke-linecap="round" points="-116.321,27.649 -114.718,27.847 -112.696,27.790 -110.672,27.869 -110.368,27.784 -109.181,27.984 "/>
			<polyline style="fill:none; stroke:rgb(0, 0, 0); stroke-width:1.432; opacity:1" stroke-linecap="round" points="-109.181,27.984 -106.616,27.678 -104.326,27.706 -104.048,27.636 -103.994,27.703 -103.660,27.480 "/>
			<polyline style="fill:none; stroke:rgb(0, 0, 0); stroke-width:1.432; opacity:1" stroke-linecap="round" points="-103.660,27.480 -103.697,27.561 -103.785,27.490 -103.930,27.517 -104.006,27.564 -104.102,27.604 "/>
			<polyline style="fill:none; stroke:rgb(60, 60, 60); stroke-width:0.828; opacity:1" stroke-linecap="round" points="-104.102,27.604 -104.102,27.604 " />
			<polyline style="fill:none; stroke:rgb(60, 60, 60); stroke-width:0.792; opacity:1" stroke-linecap="round" points="-87.097,27.818 -86.932,27.807 -86.896,27.762 -86.877,27.734 -86.907,27.725 "/>
			<polyline style="fill:none; stroke:rgb(0, 0, 0); stroke-width:0.973; opacity:1" stroke-linecap="round" points="-86.907,27.725 -86.905,27.777 -86.862,27.778 -86.873,27.807 -86.901,27.827 -86.985,27.842 "/>
			<polyline style="fill:none; stroke:rgb(0, 0, 0); stroke-width:1.339; opacity:1" stroke-linecap="round" points="-86.985,27.842 -87.026,27.897 -87.058,27.864 -87.106,27.941 -86.811,28.150 -86.661,28.054 "/>
			<polyline style="fill:none; stroke:rgb(0, 0, 0); stroke-width:1.431; opacity:1" stroke-linecap="round" points="-86.661,28.054 -85.078,28.373 -84.576,28.281 -82.741,28.316 -82.130,28.445 -77.689,28.488 "/>
			<polyline style="fill:none; stroke:rgb(0, 0, 0); stroke-width:1.432; opacity:1" stroke-linecap="round" points="-77.689,28.488 -77.457,28.586 -76.983,28.465 -74.999,28.506 -74.683,28.417 -73.917,28.571 "/>
			<polyline style="fill:none; stroke:rgb(0, 0, 0); stroke-width:1.431; opacity:1" stroke-linecap="round" points="-73.917,28.571 -72.455,28.569 -71.534,28.465 -70.375,28.490 -69.663,28.412 -69.372,28.286 "/>
			<polyline style="fill:none; stroke:rgb(0, 0, 0); stroke-width:1.430; opacity:1" stroke-linecap="round" points="-69.372,28.286 -68.330,28.241 -66.985,28.308 -62.351,28.167 -61.865,28.318 -61.608,28.307 "/>
			<polyline style="fill:none; stroke:rgb(0, 0, 0); stroke-width:1.433; opacity:1" stroke-linecap="round" points="-61.608,28.307 -61.182,28.093 -61.347,28.138 -61.356,28.020 -61.450,28.005 -61.989,28.106 "/>
			<polyline style="fill:none; stroke:rgb(0, 0, 0); stroke-width:1.210; opacity:1" stroke-linecap="round" points="-61.989,28.106 -62.136,28.172 -62.136,28.172 " />
			<polyline style="fill:none; stroke:rgb(60, 60, 60); stroke-width:1.110; opacity:1" stroke-linecap="round" points="-168.689,40.704 -168.418,40.868 -168.512,40.734 -168.433,40.722 -168.463,40.814 "/>
			<polyline style="fill:none; stroke:rgb(60, 60, 60); stroke-width:1.112; opacity:1" stroke-linecap="round" points="-168.463,40.814 -167.932,40.868 -167.299,40.682 -167.268,40.589 -166.656,40.607 -166.026,40.876 "/>
			<polyline style="fill:none; stroke:rgb(60, 60, 60); stroke-width:1.113; opacity:1" stroke-linecap="round" points="-166.026,40.876 -165.261,40.896 -164.389,40.768 -164.173,40.609 -163.492,40.571 -162.123,40.906 "/>
			<polyline style="fill:none; stroke:rgb(60, 60, 60); stroke-width:1.116; opacity:1" stroke-linecap="round" points="-162.123,40.906 -161.993,41.057 -160.586,40.773 -159.763,40.930 -159.224,40.867 -158.547,41.108 "/>
			<polyline style="fill:none; stroke:rgb(60, 60, 60); stroke-width:1.122; opacity:1" stroke-linecap="round" points="-158.547,41.108 -157.699,41.038 -157.221,41.074 -157.009,41.193 -156.706,41.098 -156.000,41.119 "/>
			<polyline style="fill:none; stroke:rgb(60, 60, 60); stroke-width:1.127; opacity:1" stroke-linecap="round" points="-156.000,41.119 -155.577,40.957 -153.114,41.166 -152.357,41.016 -150.291,40.969 -149.739,40.806 "/>
			<polyline style="fill:none; stroke:rgb(60, 60, 60); stroke-width:1.145; opacity:1" stroke-linecap="round" points="-149.739,40.806 -149.047,41.127 -148.654,41.102 -148.596,41.000 -148.372,41.048 -148.222,40.962 "/>
			<polyline style="fill:none; stroke:rgb(52, 52, 52); stroke-width:1.191; opacity:1" stroke-linecap="round" points="-148.222,40.962 -146.889,40.762 -146.427,40.593 -146.068,40.629 -145.977,40.737 -146.046,40.795 "/>
			<polyline style="fill:none; stroke:rgb(46, 46, 46); stroke-width:1.198; opacity:1" stroke-linecap="round" points="-146.046,40.795 -145.610,40.745 -145.543,40.656 -144.546,40.640 -144.280,40.727 -144.251,40.645 "/>
			<polyline style="fill:none; stroke:rgb(27, 27, 27); stroke-width:1.219; opacity:1" stroke-linecap="round" points="-144.251,40.645 -144.343,40.708 -144.272,40.738 -144.641,40.780 -144.600,40.811 -144.706,40.828 "/>
			<polyline style="fill:none; stroke:rgb(60, 60, 60); stroke-width:1.138; opacity:1" stroke-linecap="round" points="-144.706,40.828 -144.776,40.924 -144.714,40.911 " />
			<polyline style="fill:none; stroke:rgb(60, 60, 60); stroke-width:1.109; opacity:1" stroke-linecap="round" points="-129.130,40.874 -129.506,41.050 -129.381,41.039 -129.375,41.036 -129.452,41.088 "/>
			<polyline style="fill:none; stroke:rgb(0, 0, 0); stroke-width:1.258; opacity:1" stroke-linecap="round" points="-129.452,41.088 -129.395,41.068 -129.329,41.078 -129.313,41.066 -129.325,41.048 -129.286,41.043 "/>
			<polyline style="fill:none; stroke:rgb(0, 0, 0); stroke-width:1.627; opacity:1" stroke-linecap="round" points="-129.286,41.043 -129.278,40.975 -129.231,41.084 -129.286,41.167 -129.086,41.259 -129.163,41.262 "/>
			<polyline style="fill:none; stroke:rgb(0, 0, 0); stroke-width:1.910; opacity:1" stroke-linecap="round" points="-129.163,41.262 -129.144,41.399 -128.766,41.286 -128.043,41.384 -125.793,41.296 -125.719,41.189 "/>
			<polyline style="fill:none; stroke:rgb(0, 0, 0); stroke-width:1.910; opacity:1" stroke-linecap="round" points="-125.719,41.189 -125.476,41.278 -125.449,41.203 -125.002,41.302 -124.496,41.277 -123.335,41.039 "/>
			<polyline style="fill:none; stroke:rgb(0, 0, 0); stroke-width:1.909; opacity:1" stroke-linecap="round" points="-123.335,41.039 -122.023,41.037 -121.735,40.956 -120.280,40.973 -120.153,41.051 -119.732,40.938 "/>
			<polyline style="fill:none; stroke:rgb(0, 0, 0); stroke-width:1.909; opacity:1" stroke-linecap="round" points="-119.732,40.938 -119.346,41.108 -118.661,41.034 -118.513,40.905 -118.062,41.008 -117.831,40.887 "/>
			<polyline style="fill:none; stroke:rgb(0, 0, 0); stroke-width:1.910; opacity:1" stroke-linecap="round" points="-117.831,40.887 -116.718,40.956 -116.498,40.851 -115.620,40.776 -114.844,40.786 -114.768,40.931 "/>
			<polyline style="fill:none; stroke:rgb(0, 0, 0); stroke-width:1.910; opacity:1" stroke-linecap="round" points="-114.768,40.931 -114.655,40.837 -114.517,40.881 -114.363,40.728 -113.379,40.859 -112.616,40.763 "/>
			<polyline style="fill:none; stroke:rgb(0, 0, 0); stroke-width:1.909; opacity:1" stroke-linecap="round" points="-112.616,40.763 -112.047,40.878 -110.779,40.783 -110.658,40.888 -109.368,40.767 -106.908,40.838 "/>
			<polyline style="fill:none; stroke:rgb(0, 0, 0); stroke-width:1.909; opacity:1" stroke-linecap="round" points="-106.908,40.838 -106.756,40.667 -106.649,40.784 -106.048,40.807 -105.373,40.574 -105.278,40.736 "/>
			<polyline style="fill:none; stroke:rgb(0, 0, 0); stroke-width:1.911; opacity:1" stroke-linecap="round" points="-105.278,40.736 -104.987,40.618 -105.163,40.631 -105.116,40.506 -105.109,40.605 -104.910,40.511 "/>
			<polyline style="fill:none; stroke:rgb(0, 0, 0); stroke-width:1.719; opacity:1" stroke-linecap="round" points="-104.910,40.511 -104.855,40.602 -104.780,40.653 -104.819,40.685 -104.819,40.685 " />
			<polyline style="fill:none; stroke:rgb(60, 60, 60); stroke-width:1.109; opacity:1" stroke-linecap="round" points="-87.888,40.647 -87.740,40.619 -87.781,40.630 -87.784,40.710 -87.802,40.699 "/>
			<polyline style="fill:none; stroke:rgb(11, 11, 11); stroke-width:1.236; opacity:1" stroke-linecap="round" points="-87.802,40.699 -87.829,40.718 -87.810,40.751 -87.853,40.759 -87.862,40.758 -87.876,40.771 "/>
			<polyline style="fill:none; stroke:rgb(0, 0, 0); stroke-width:1.523; opacity:1" stroke-linecap="round" points="-87.876,40.771 -87.854,40.674 -87.833,40.802 -87.730,40.961 -86.913,41.235 -85.957,41.293 "/>
			<polyline style="fill:none; stroke:rgb(0, 0, 0); stroke-width:1.911; opacity:1" stroke-linecap="round" points="-85.957,41.293 -85.833,41.383 -84.912,41.345 -82.452,41.705 -81.480,41.707 -81.327,41.862 "/>
			<polyline style="fill:none; stroke:rgb(0, 0, 0); stroke-width:1.908; opacity:1" stroke-linecap="round" points="-81.327,41.862 -81.239,41.780 -80.143,41.630 -78.505,41.665 -78.319,41.525 -77.848,41.635 "/>
			<polyline style="fill:none; stroke:rgb(0, 0, 0); stroke-width:1.910; opacity:1" stroke-linecap="round" points="-77.848,41.635 -77.669,41.548 -77.284,41.573 -76.949,41.663 -76.802,41.841 -75.868,41.655 "/>
			<polyline style="fill:none; stroke:rgb(0, 0, 0); stroke-width:1.911; opacity:1" stroke-linecap="round" points="-75.868,41.655 -75.166,41.737 -73.927,41.576 -72.473,41.621 -72.296,41.721 -71.784,41.624 "/>
			<polyline style="fill:none; stroke:rgb(0, 0, 0); stroke-width:1.910; opacity:1" stroke-linecap="round" points="-71.784,41.624 -69.688,41.675 -69.530,41.757 -68.891,41.607 -66.978,41.651 -66.490,41.520 "/>
			<polyline style="fill:none; stroke:rgb(0, 0, 0); stroke-width:1.908; opacity:1" stroke-linecap="round" points="-66.490,41.520 -65.437,41.633 -64.366,41.569 -64.083,41.701 -63.781,41.499 -61.909,41.408 "/>
			<polyline style="fill:none; stroke:rgb(0, 0, 0); stroke-width:1.910; opacity:1" stroke-linecap="round" points="-61.909,41.408 -61.577,41.350 -61.490,41.227 -61.259,41.289 -60.043,41.145 -59.864,41.243 "/>
			<polyline style="fill:none; stroke:rgb(0, 0, 0); stroke-width:1.911; opacity:1" stroke-linecap="round" points="-59.864,41.243 -59.445,41.045 -59.341,41.093 -59.449,41.102 -59.455,41.010 -59.565,41.067 "/>
			<polyline style="fill:none; stroke:rgb(0, 0, 0); stroke-width:1.909; opacity:1" stroke-linecap="round" points="-59.565,41.067 -59.843,40.960 -59.951,40.977 -60.086,41.026 -60.227,41.063 -60.396,41.115 "/>
			<polyline style="fill:none; stroke:rgb(51, 51, 51); stroke-width:1.194; opacity:1" stroke-linecap="round" points="-60.396,41.115 -60.396,41.115 " />
			<polyline style="fill:none; stroke:rgb(60, 60, 60); stroke-width:1.591; opacity:1" stroke-linecap="round" points="-169.558,54.471 -168.512,54.336 -167.836,54.112 -166.511,54.292 -165.322,53.977 "/>
			<polyline style="fill:none; stroke:rgb(60, 60, 60); stroke-width:1.591; opacity:1" stroke-linecap="round" points="-165.322,53.977 -164.171,53.958 -163.867,54.046 -163.228,54.005 -161.857,54.138 -161.690,54.050 "/>
			<polyline style="fill:none; stroke:rgb(60, 60, 60); stroke-width:1.593; opacity:1" stroke-linecap="round" points="-161.690,54.050 -160.454,54.223 -160.386,54.360 -160.288,54.224 -159.828,54.108 -158.432,54.159 "/>
			<polyline style="fill:none; stroke:rgb(60, 60, 60); stroke-width:1.590; opacity:1" stroke-linecap="round" points="-158.432,54.159 -157.067,54.394 -156.793,54.343 -156.707,54.447 -155.865,54.324 -155.464,54.407 "/>
			<polyline style="fill:none; stroke:rgb(60, 60, 60); stroke-width:1.591; opacity:1" stroke-linecap="round" points="-155.464,54.407 -154.391,54.260 -153.979,54.340 -153.496,54.231 -152.861,54.263 -151.971,54.084 "/>
			<polyline style="fill:none; stroke:rgb(60, 60, 60); stroke-width:1.591; opacity:1" stroke-linecap="round" points="-151.971,54.084 -150.827,54.183 -150.439,54.443 -149.402,54.123 -148.932,54.097 -147.487,54.187 "/>
			<polyline style="fill:none; stroke:rgb(60, 60, 60); stroke-width:1.594; opacity:1" stroke-linecap="round" points="-147.487,54.187 -147.168,54.126 -146.806,54.158 -146.890,54.174 -146.777,54.267 -146.962,54.187 "/>
			<polyline style="fill:none; stroke:rgb(60, 60, 60); stroke-width:1.604; opacity:1" stroke-linecap="round" points="-146.962,54.187 -146.011,54.153 -145.789,54.104 -145.855,54.023 -145.708,54.116 -145.777,54.216 "/>
			<polyline style="fill:none; stroke:rgb(60, 60, 60); stroke-width:1.596; opacity:1" stroke-linecap="round" points="-145.777,54.216 -145.807,54.125 -145.613,54.217 " />
			<polyline style="fill:none; stroke:rgb(60, 60, 60); stroke-width:1.588; opacity:1" stroke-linecap="round" points="-129.321,53.902 -128.700,53.720 -127.915,53.775 -127.561,53.655 -126.189,53.835 "/>
			<polyline style="fill:none; stroke:rgb(60, 60, 60); stroke-width:1.591; opacity:1" stroke-linecap="round" points="-126.189,53.835 -125.960,53.761 -125.815,53.866 -125.015,53.602 -123.611,53.559 -123.544,53.485 "/>
			<polyline style="fill:none; stroke:rgb(60, 60, 60); stroke-width:1.660; opacity:1" stroke-linecap="round" points="-123.544,53.485 -122.960,53.755 -122.767,53.683 -122.659,53.711 -122.282,53.655 -121.803,53.638 "/>
			<polyline style="fill:none; stroke:rgb(0, 0, 0); stroke-width:1.724; opacity:1" stroke-linecap="round" points="-121.803,53.638 -121.735,53.578 -120.250,53.547 -120.220,53.456 -120.294,53.446 -120.263,53.546 "/>
			<polyline style="fill:none; stroke:rgb(0, 0, 0); stroke-width:1.742; opacity:1" stroke-linecap="round" points="-120.263,53.546 -120.167,53.517 -120.288,53.542 -120.220,53.612 -118.807,53.357 -118.554,53.458 "/>
			<polyline style="fill:none; stroke:rgb(0, 0, 0); stroke-width:1.748; opacity:1" stroke-linecap="round" points="-118.554,53.458 -118.346,53.365 -116.424,53.383 -116.266,53.307 -115.336,53.457 -113.305,53.363 "/>
			<polyline style="fill:none; stroke:rgb(0, 0, 0); stroke-width:1.754; opacity:1" stroke-linecap="round" points="-113.305,53.363 -112.236,53.392 -112.039,53.493 -111.932,53.407 -111.471,53.442 -110.180,53.178 "/>
			<polyline style="fill:none; stroke:rgb(0, 0, 0); stroke-width:1.760; opacity:1" stroke-linecap="round" points="-110.180,53.178 -107.028,53.138 -106.066,52.726 -103.915,52.641 -103.813,52.504 -103.529,52.578 "/>
			<polyline style="fill:none; stroke:rgb(0, 0, 0); stroke-width:1.760; opacity:1" stroke-linecap="round" points="-103.529,52.578 -103.407,52.480 -103.129,52.509 -102.962,52.618 -102.815,52.553 -102.910,52.448 "/>
			<polyline style="fill:none; stroke:rgb(0, 0, 0); stroke-width:1.781; opacity:1" stroke-linecap="round" points="-102.910,52.448 -102.480,52.480 -102.494,52.387 -102.707,52.432 -102.731,52.490 -102.797,52.524 "/>
			<polyline style="fill:none; stroke:rgb(35, 35, 35); stroke-width:1.688; opacity:1" stroke-linecap="round" points="-102.797,52.524 -102.877,52.543 -102.913,52.581 -102.953,52.617 -102.953,52.617 " />
			<polyline style="fill:none; stroke:rgb(60, 60, 60); stroke-width:1.589; opacity:1" stroke-linecap="round" points="-86.608,53.762 -86.747,53.478 -86.765,53.562 -86.801,53.599 -86.820,53.579 "/>
			<polyline style="fill:none; stroke:rgb(7, 7, 7); stroke-width:1.717; opacity:1" stroke-linecap="round" points="-86.820,53.579 -86.839,53.655 -86.793,53.728 -86.796,53.765 -86.851,53.777 -86.805,53.804 "/>
			<polyline style="fill:none; stroke:rgb(0, 0, 0); stroke-width:1.986; opacity:1" stroke-linecap="round" points="-86.805,53.804 -86.842,53.828 -86.880,53.805 -86.828,53.833 -86.857,53.861 -86.670,53.894 "/>
			<polyline style="fill:none; stroke:rgb(0, 0, 0); stroke-width:2.626; opacity:1" stroke-linecap="round" points="-86.670,53.894 -86.668,53.941 -86.590,53.821 -85.233,53.904 -84.046,53.820 -83.223,53.646 "/>
			<polyline style="fill:none; stroke:rgb(0, 0, 0); stroke-width:2.625; opacity:1" stroke-linecap="round" points="-83.223,53.646 -81.770,53.592 -81.493,53.660 -80.025,53.463 -79.749,53.536 -78.317,53.386 "/>
			<polyline style="fill:none; stroke:rgb(0, 0, 0); stroke-width:2.626; opacity:1" stroke-linecap="round" points="-78.317,53.386 -78.138,53.287 -77.129,53.471 -76.624,53.333 -75.396,53.230 -74.643,53.340 "/>
			<polyline style="fill:none; stroke:rgb(0, 0, 0); stroke-width:2.625; opacity:1" stroke-linecap="round" points="-74.643,53.340 -73.759,53.324 -73.560,53.445 -73.347,53.346 -71.744,53.220 -69.530,53.227 "/>
			<polyline style="fill:none; stroke:rgb(0, 0, 0); stroke-width:2.626; opacity:1" stroke-linecap="round" points="-69.530,53.227 -68.031,53.142 -67.794,53.041 -66.487,53.081 -65.769,52.963 -65.393,53.056 "/>
			<polyline style="fill:none; stroke:rgb(0, 0, 0); stroke-width:2.625; opacity:1" stroke-linecap="round" points="-65.393,53.056 -64.227,53.009 -63.058,53.098 -61.820,52.870 -61.544,52.914 -61.351,52.783 "/>
			<polyline style="fill:none; stroke:rgb(0, 0, 0); stroke-width:2.628; opacity:1" stroke-linecap="round" points="-61.351,52.783 -60.831,52.943 -60.097,52.671 -58.670,52.638 -58.437,52.762 -57.620,52.645 "/>
			<polyline style="fill:none; stroke:rgb(0, 0, 0); stroke-width:2.628; opacity:1" stroke-linecap="round" points="-57.620,52.645 -57.540,52.519 -57.463,52.619 -57.537,52.644 -56.986,52.504 -56.412,52.585 "/>
			<polyline style="fill:none; stroke:rgb(0, 0, 0); stroke-width:2.627; opacity:1" stroke-linecap="round" points="-56.412,52.585 -56.367,52.702 -56.325,52.646 -56.434,52.677 -56.750,52.389 -56.799,52.376 "/>
			<polyline style="fill:none; stroke:rgb(0, 0, 0); stroke-width:2.267; opacity:1" stroke-linecap="round" points="-56.799,52.376 -56.866,52.400 -56.955,52.427 -56.955,52.427 " />
		</g>
		</g>
	</g>
</svg>
