<?xml version="1.0" encoding="UTF-8"?>
<svg xmlns="http://www.w3.org/2000/svg" height="596.7158562991999" width="447.6107555828263" viewBox="-223.64615381291483 -0.007891697429977687 447.6107555828263 596.7158562991999">
	<g id="p1" style="display:inline">
		<g id="CrdtId(0, 1)" transform="translate(0.0, 0.0)">
		<g id="CrdtId(0, 11)" transform="translate(0.0, 0.0)">
			<polyline style="fill:none; stroke:rgb(0, 0, 0); stroke-width:1.274; opacity:0.7" stroke-linecap="round" points="-130.666,99.694 -130.908,99.096 -129.961,100.790 -129.282,102.715 -128.765,104.517 -127.425,110.754 -126.421,117.417 -124.861,125.943 -124.722,127.438 -124.797,129.458 -124.966,130.273 -125.278,131.067 -126.139,132.213 -126.934,132.943 -127.639,133.378 -129.366,133.804 -130.391,133.368 -131.107,132.688 -131.597,132.112 -132.387,130.537 -132.767,128.831 -132.771,126.927 -131.751,125.379 -130.951,124.793 -129.661,124.427 -128.372,124.188 -127.353,124.284 -126.333,124.617 -125.968,124.556 -124.726,125.134 -123.602,125.932 -122.553,126.760 -121.939,127.426 -120.967,128.154 -120.945,128.346 -120.788,128.431 -120.668,128.340 -120.529,128.458 -120.550,128.591 -120.521,128.311 -119.968,128.070 " />
			<polyline style="fill:none; stroke:rgb(0, 0, 0); stroke-width:1.274; opacity:0.7" stroke-linecap="round" points="-115.996,124.187 -116.323,124.401 -115.807,124.592 -115.284,124.499 -114.683,124.519 -114.446,124.620 -113.699,124.455 -112.682,124.433 -110.534,123.317 -110.193,123.069 -109.995,122.761 -109.849,122.396 -109.724,121.504 -109.847,120.873 -110.291,120.158 -110.478,120.155 -110.677,119.965 -111.198,119.759 -111.660,119.772 -112.598,120.146 -113.216,120.572 -113.961,121.821 -114.749,123.916 -115.298,126.779 -115.048,127.582 -114.388,128.846 -114.171,128.962 -113.500,129.959 -112.445,130.715 -111.980,130.924 -111.217,130.937 -109.510,130.576 -108.741,130.199 -107.666,129.509 " />
			<polyline style="fill:none; stroke:rgb(0, 0, 0); stroke-width:1.274; opacity:0.7" stroke-linecap="round" points="-86.096,100.022 -86.618,98.332 -87.122,97.441 -87.735,96.766 -88.379,96.414 -88.750,96.361 -89.354,96.516 -89.807,96.754 -90.844,97.605 -92.841,99.918 -93.804,101.199 -95.194,103.681 -96.179,106.677 -96.564,108.469 -97.104,111.922 -97.440,115.563 -97.496,118.529 -97.357,120.623 -97.062,122.704 -96.370,126.026 -94.871,131.672 -93.725,135.046 -91.587,140.230 -90.732,142.784 -90.153,144.804 -89.608,147.451 -89.483,149.012 -89.676,150.309 -89.795,150.510 -89.982,150.487 -90.144,150.451 -90.519,150.277 " />
			<polyline style="fill:none; stroke:rgb(0, 0, 0); stroke-width:1.274; opacity:0.7" stroke-linecap="round" points="-102.088,133.566 -102.303,133.335 -102.485,133.179 -102.750,132.838 -102.739,132.691 -102.253,132.779 -101.818,132.634 -97.278,130.630 -95.396,129.933 -92.476,129.166 -90.572,128.885 -90.132,128.883 " />
			<polyline style="fill:none; stroke:rgb(0, 0, 0); stroke-width:1.274; opacity:0.7" stroke-linecap="round" points="-74.783,121.932 -75.008,121.690 -76.443,120.956 -77.993,120.543 -79.152,120.690 -81.108,121.112 -82.195,121.804 -83.835,123.774 -84.337,124.777 -84.511,125.683 -84.577,126.475 -84.327,127.409 -83.978,128.172 -83.146,129.105 -82.456,129.408 -81.928,129.447 -80.785,129.751 -79.963,129.373 -78.385,128.173 -77.307,126.496 -76.735,124.961 -75.838,121.228 -75.632,119.552 -75.870,120.625 -75.963,124.119 -75.605,127.212 -75.072,128.354 -74.136,129.705 -73.328,130.633 -73.084,130.697 -72.749,130.573 -72.297,130.125 " />
			<polyline style="fill:none; stroke:rgb(0, 0, 0); stroke-width:1.274; opacity:0.7" stroke-linecap="round" points="-65.461,120.660 -65.543,120.580 -65.623,120.541 -65.715,120.518 -65.708,120.504 -65.752,120.511 -65.622,120.730 -65.883,122.135 -65.944,123.062 -65.764,125.581 -65.290,126.951 -64.900,127.670 -64.433,128.167 -63.866,128.306 -63.456,128.140 -62.739,127.491 -62.417,126.858 -61.772,126.058 -60.998,124.834 -60.193,123.153 -59.373,120.751 -59.040,119.437 -59.079,119.669 -59.056,119.694 -59.034,119.648 -58.976,119.604 -58.936,119.580 -58.936,119.580 " />
			<polyline style="fill:none; stroke:rgb(0, 0, 0); stroke-width:1.274; opacity:0.7" stroke-linecap="round" points="-53.899,103.399 -53.928,103.329 -54.042,103.217 -54.135,103.012 -54.087,102.940 -53.695,103.748 -53.278,105.114 -52.271,109.863 -50.880,117.287 -48.861,124.827 -48.753,125.521 -47.865,128.344 -47.633,129.454 -47.726,129.362 -47.759,129.209 -47.762,129.125 " />
			<polyline style="fill:none; stroke:rgb(0, 0, 0); stroke-width:1.274; opacity:0.7" stroke-linecap="round" points="-40.730,97.873 -40.706,97.718 -40.762,97.540 -40.707,97.455 -40.443,97.831 -39.625,99.733 -39.072,101.298 -38.475,103.798 -38.228,105.971 -38.025,111.359 -37.688,115.761 -37.204,118.791 -36.703,120.426 -36.161,123.524 -35.789,128.550 -35.853,128.398 -35.855,128.354 -35.870,128.294 -35.907,128.169 -35.907,128.169 " />
			<polyline style="fill:none; stroke:rgb(0, 0, 0); stroke-width:1.274; opacity:0.7" stroke-linecap="round" points="-43.944,111.455 -44.005,111.340 -44.184,110.932 -44.313,110.788 -44.252,110.685 -44.042,110.811 -42.548,110.659 -39.155,109.383 -35.432,108.308 -32.300,107.612 -30.000,107.556 -28.045,107.834 -27.274,108.164 -26.662,108.606 -26.662,108.606 -26.297,109.034 -26.297,109.034 -26.297,109.034 " />
			<polyline style="fill:none; stroke:rgb(0, 0, 0); stroke-width:1.274; opacity:0.7" stroke-linecap="round" points="54.269,114.577 54.187,114.274 53.858,113.810 53.655,113.537 53.425,113.436 52.517,113.356 52.071,113.526 51.843,113.465 51.085,113.564 50.174,113.793 48.769,114.332 47.971,114.770 45.487,115.617 42.018,116.593 41.122,117.100 41.106,117.165 41.654,117.196 42.415,117.762 43.907,118.429 48.423,119.315 50.798,120.028 52.042,120.681 52.851,121.255 53.581,121.969 53.896,122.460 53.951,122.747 53.849,123.174 53.305,123.754 50.969,124.993 48.657,126.059 43.311,128.306 43.075,128.466 43.134,128.406 43.627,128.343 43.877,128.265 44.426,128.227 44.972,127.969 " />
			<polyline style="fill:none; stroke:rgb(0, 0, 0); stroke-width:1.274; opacity:0.7" stroke-linecap="round" points="61.234,110.510 61.273,110.503 61.284,110.489 61.318,110.538 61.291,110.718 61.727,111.985 62.158,113.980 62.420,117.873 62.448,119.705 62.286,121.750 61.995,123.357 61.920,123.553 61.791,123.715 61.732,123.747 61.732,123.747 61.642,123.811 61.642,123.811 " />
			<polyline style="fill:none; stroke:rgb(0, 0, 0); stroke-width:1.274; opacity:0.7" stroke-linecap="round" points="62.149,107.415 62.118,107.287 62.011,106.720 61.739,105.897 61.928,106.101 62.054,106.175 62.054,106.175 62.406,106.357 62.406,106.357 62.406,106.357 " />
			<polyline style="fill:none; stroke:rgb(0, 0, 0); stroke-width:1.274; opacity:0.7" stroke-linecap="round" points="68.878,112.490 68.900,112.377 68.912,112.206 68.926,111.990 68.924,111.846 68.950,111.780 69.252,111.995 70.092,111.475 70.999,111.132 72.909,110.790 74.147,111.717 74.772,112.712 75.307,114.025 75.536,114.927 75.660,116.443 75.538,118.824 75.017,121.957 74.871,123.658 75.133,124.564 75.829,125.406 76.477,125.425 77.770,125.046 78.386,124.969 81.727,122.666 82.451,121.968 83.120,121.106 83.226,120.920 83.359,120.540 83.390,120.375 " />
			<polyline style="fill:none; stroke:rgb(0, 0, 0); stroke-width:1.274; opacity:0.7" stroke-linecap="round" points="73.422,116.455 73.380,116.393 73.248,116.073 73.059,115.792 73.344,115.971 73.721,116.014 75.107,115.868 78.552,115.021 79.324,114.658 79.528,114.540 79.528,114.540 " />
			<polyline style="fill:none; stroke:rgb(0, 0, 0); stroke-width:1.274; opacity:0.7" stroke-linecap="round" points="86.382,118.328 86.432,118.316 86.447,118.415 86.818,118.855 87.388,119.264 87.786,119.325 87.999,119.481 88.750,119.715 89.724,119.736 90.531,119.511 91.560,118.955 93.701,116.712 94.441,115.548 95.019,114.127 95.181,112.682 94.994,110.923 94.721,110.162 94.311,109.645 93.656,109.267 92.912,109.070 91.868,109.615 90.791,110.332 89.544,111.313 87.803,113.382 86.450,115.861 85.688,117.788 85.327,119.418 85.434,120.550 85.720,121.171 87.028,122.607 88.213,123.283 91.805,124.586 94.360,125.116 95.867,125.195 96.886,125.063 97.470,124.857 98.037,124.575 98.795,124.110 98.994,123.961 98.994,123.961 " />
			<polyline style="fill:none; stroke:rgb(0, 0, 0); stroke-width:1.274; opacity:0.7" stroke-linecap="round" points="-172.379,40.305 -172.337,40.164 -172.680,40.005 -173.447,40.174 -174.211,40.599 -175.210,40.884 -180.061,41.068 -184.719,41.642 -189.629,42.651 -194.577,44.052 -199.841,45.295 -204.469,46.192 -212.338,47.336 -223.618,49.950 -223.617,53.091 " />
			<polyline style="fill:none; stroke:rgb(0, 0, 0); stroke-width:1.274; opacity:0.7" stroke-linecap="round" points="-179.649,57.377 -179.326,57.332 -179.482,57.357 -179.482,57.295 -179.558,57.140 -179.863,54.420 -179.851,52.996 -179.642,51.401 -179.909,48.733 -180.014,38.852 -180.293,31.274 -180.600,17.571 -180.853,12.750 -180.907,7.800 -181.240,3.725 -181.280,-0.007 -181.352,0.000 -182.459,0.001 -183.381,0.006 -184.607,-0.008 " />
			<polyline style="fill:none; stroke:rgb(0, 0, 0); stroke-width:1.274; opacity:0.7" stroke-linecap="round" points="191.506,0.000 192.239,15.134 192.334,26.249 192.171,30.325 190.643,52.745 190.575,55.987 190.870,60.207 191.416,63.450 191.597,65.360 " />
			<polyline style="fill:none; stroke:rgb(0, 0, 0); stroke-width:1.274; opacity:0.7" stroke-linecap="round" points="167.075,43.500 167.150,43.562 167.227,43.595 168.296,43.903 170.050,44.298 173.317,44.839 178.941,45.394 184.633,45.655 198.451,45.431 202.115,45.293 210.995,44.694 223.327,44.430 223.327,44.032 " />
			<polyline style="fill:none; stroke:rgb(0, 0, 0); stroke-width:1.274; opacity:0.7" stroke-linecap="round" points="181.820,550.818 181.341,550.418 180.884,550.145 180.503,555.398 180.558,559.211 180.736,561.184 181.222,563.912 181.704,565.693 183.132,570.031 183.758,572.497 184.951,578.343 185.536,582.464 185.718,584.738 186.010,596.096 186.642,596.071 " />
			<polyline style="fill:none; stroke:rgb(0, 0, 0); stroke-width:1.274; opacity:0.7" stroke-linecap="round" points="165.837,556.608 166.165,556.240 168.016,555.570 171.439,554.839 174.735,554.346 182.434,553.588 194.794,552.907 198.584,552.871 206.946,553.223 214.159,554.115 223.148,555.012 223.327,555.192 223.327,554.491 " />
			<polyline style="fill:none; stroke:rgb(0, 0, 0); stroke-width:1.274; opacity:0.7" stroke-linecap="round" points="-175.691,540.962 -175.570,541.293 -175.523,541.599 -174.935,547.530 -174.426,551.134 -173.601,560.501 -173.099,564.911 -172.859,580.059 -172.754,584.453 -172.410,592.573 -172.164,596.071 -172.876,596.071 " />
			<polyline style="fill:none; stroke:rgb(0, 0, 0); stroke-width:1.274; opacity:0.7" stroke-linecap="round" points="-223.646,551.647 -223.646,551.798 -223.646,552.085 -223.645,552.921 -223.646,553.178 -223.520,553.314 -221.566,553.780 -219.651,554.085 -217.450,554.344 -214.964,554.463 -203.800,554.433 -199.321,554.243 -194.877,553.862 -186.394,552.920 -173.103,551.221 -165.216,550.512 -161.500,550.207 -159.096,549.982 -157.905,549.879 -155.522,549.678 " />
		</g>
		</g>
	</g>
</svg>
